<?xml version="1.0" encoding="UTF-8"?>
<svg id="Layer_1" data-name="Layer 1" xmlns="http://www.w3.org/2000/svg" viewBox="0 0 512 512">
  <defs>
    <style>
      .cls-1 {
        fill: #fff;
      }
    </style>
  </defs>
  <path class="cls-1" d="M405.33,42.67h-21.33v-21.33c0-11.78-9.54-21.33-21.33-21.33s-21.33,9.56-21.33,21.33v21.33h-170.67v-21.33c0-11.78-9.54-21.33-21.33-21.33s-21.33,9.56-21.33,21.33v21.33h-21.33C47.85,42.67,0,90.52,0,149.33v256c0,58.82,47.85,106.67,106.67,106.67h298.67c58.82,0,106.67-47.85,106.67-106.67V149.33c0-58.82-47.85-106.67-106.67-106.67ZM106.67,85.33h298.67c35.29,0,64,28.71,64,64v21.33H42.67v-21.33c0-35.29,28.71-64,64-64ZM405.33,469.33H106.67c-35.29,0-64-28.71-64-64v-192h426.67v192c0,35.29-28.71,64-64,64ZM380.42,280.58c8.19,8.47,7.94,21.99-.53,30.17l-101.12,97.45c-11.8,11.8-27.88,18.47-44.97,18.47s-33.17-6.66-45.25-18.75l-48.04-44.63c-8.62-8.02-9.13-21.53-1.11-30.14,8.06-8.64,21.55-9.11,30.14-1.11l48.6,45.16c9.24,9.17,22.68,8.58,30.7.55l101.42-97.75c8.49-8.17,21.97-7.91,30.17.55v.02Z"/>
</svg>